<?xml version="1.0" encoding="UTF-8" standalone="no"?>
<svg
   xmlns:dc="http://purl.org/dc/elements/1.1/"
   xmlns:cc="http://creativecommons.org/ns#"
   xmlns:rdf="http://www.w3.org/1999/02/22-rdf-syntax-ns#"
   xmlns:svg="http://www.w3.org/2000/svg"
   xmlns="http://www.w3.org/2000/svg"
   xmlns:sodipodi="http://sodipodi.sourceforge.net/DTD/sodipodi-0.dtd"
   xmlns:inkscape="http://www.inkscape.org/namespaces/inkscape"
   width="800"
   height="600"
   id="svg2"
   sodipodi:version="0.32"
   inkscape:version="1.0 (b51213c273, 2020-08-10)"
   sodipodi:docname="convex_cones.svg"
   version="1.0"
   inkscape:export-filename="/home/aoleg/diverse/wiki/Convex_set.png"
   inkscape:export-xdpi="472.92001"
   inkscape:export-ydpi="472.92001"
   viewBox="0 0 800 600">
  <defs
     id="defs4">
    <inkscape:path-effect
       only_selected="false"
       apply_with_weight="true"
       apply_no_weight="true"
       helper_size="0"
       steps="2"
       weight="33.333333"
       lpeversion="1"
       is_visible="true"
       id="path-effect1126"
       effect="bspline" />
    <inkscape:path-effect
       only_selected="false"
       apply_with_weight="true"
       apply_no_weight="true"
       helper_size="0"
       steps="2"
       weight="33.333333"
       lpeversion="1"
       is_visible="true"
       id="path-effect272"
       effect="bspline" />
    <inkscape:path-effect
       effect="bspline"
       id="path-effect898"
       is_visible="true"
       lpeversion="1"
       weight="33.333333"
       steps="2"
       helper_size="0"
       apply_no_weight="true"
       apply_with_weight="true"
       only_selected="false" />
    <inkscape:path-effect
       effect="bspline"
       id="path-effect894"
       is_visible="true"
       lpeversion="1"
       weight="33.333333"
       steps="2"
       helper_size="0"
       apply_no_weight="true"
       apply_with_weight="true"
       only_selected="false" />
    <inkscape:path-effect
       effect="bspline"
       id="path-effect39"
       is_visible="true"
       lpeversion="1"
       weight="33.333333"
       steps="2"
       helper_size="0"
       apply_no_weight="true"
       apply_with_weight="true"
       only_selected="false" />
    <inkscape:path-effect
       effect="bspline"
       id="path-effect35"
       is_visible="true"
       lpeversion="1"
       weight="33.333333"
       steps="2"
       helper_size="0"
       apply_no_weight="true"
       apply_with_weight="true"
       only_selected="false" />
    <marker
       inkscape:stockid="Dot_s"
       orient="auto"
       refY="0"
       refX="0"
       id="Dot_s"
       style="overflow:visible">
      <path
         id="path2284"
         d="m -2.5,-1 c 0,2.76 -2.24,5 -5,5 -2.76,0 -5,-2.24 -5,-5 0,-2.76 2.24,-5 5,-5 2.76,0 5,2.24 5,5 z"
         style="fill-rule:evenodd;stroke:#000000;stroke-width:1pt;marker-start:none;marker-end:none"
         transform="matrix(0.2,0,0,0.2,1.425099,0.2)" />
    </marker>
    <marker
       style="overflow:visible"
       id="marker2522"
       refX="0"
       refY="0"
       orient="auto"
       inkscape:stockid="Dot_s">
      <path
         transform="matrix(0.2,0,0,0.2,1.425099,0.2)"
         style="fill-rule:evenodd;stroke:#000000;stroke-width:1pt;marker-start:none;marker-end:none"
         d="m -2.5,-1 c 0,2.76 -2.24,5 -5,5 -2.76,0 -5,-2.24 -5,-5 0,-2.76 2.24,-5 5,-5 2.76,0 5,2.24 5,5 z"
         id="path2524" />
    </marker>
  </defs>
  <sodipodi:namedview
     id="base"
     pagecolor="#1f303e"
     bordercolor="#666666"
     borderopacity="1.0"
     inkscape:pageopacity="0"
     inkscape:pageshadow="2"
     inkscape:zoom="1.0624868"
     inkscape:cx="367.96801"
     inkscape:cy="206.44073"
     inkscape:document-units="px"
     inkscape:current-layer="svg2"
     inkscape:window-width="1920"
     inkscape:window-height="1080"
     inkscape:window-x="0"
     inkscape:window-y="0"
     inkscape:document-rotation="0"
     showgrid="false"
     units="px"
     width="800mm"
     inkscape:window-maximized="0" />
  <metadata
     id="metadata7">
    <rdf:RDF>
      <cc:Work
         rdf:about="">
        <dc:format>image/svg+xml</dc:format>
        <dc:type
           rdf:resource="http://purl.org/dc/dcmitype/StillImage" />
        <dc:title />
      </cc:Work>
    </rdf:RDF>
  </metadata>
  <path
     style="fill:#ffffff;stroke:#000000;stroke-width:6.49745;stroke-linecap:butt;stroke-linejoin:miter;stroke-miterlimit:4;stroke-dasharray:none;stroke-opacity:1;fill-opacity:0.87238127"
     d="M 607.63781,101.76882 C 499.55602,13.627077 312.05649,-11.950061 190.53749,68.903496 69.018478,149.75705 13.483927,337.03321 120.80973,448.20745 228.13553,559.38168 498.31029,594.44944 634.15976,588.95064 770.00924,583.45183 771.5295,537.3866 757.95689,438.9996 744.38428,340.6126 715.7196,189.91055 607.63781,101.76882 Z"
     id="path37"
     inkscape:path-effect="#path-effect39"
     inkscape:original-d="M 687.05406,39.204012 C 499.55588,13.628135 312.05635,-11.949003 124.55549,-37.527401 69.020051,149.75752 13.485504,337.03368 -42.051502,524.31233 228.13539,559.38275 498.31015,594.45051 768.48896,629.51771 c 1.52166,-46.06583 3.04193,-92.13106 4.56087,-138.19848 C 744.38535,340.6124 715.72067,189.91035 687.05406,39.204012 Z"
     inkscape:label="nonneg" />
  <path
     style="opacity:1;fill:#00ffff;fill-opacity:0.5;stroke:#000080;stroke-width:5;stroke-linecap:butt;stroke-linejoin:miter;stroke-miterlimit:4;stroke-dasharray:none;stroke-opacity:1"
     d="m 320.00423,111.04104 c -20.08715,-8.62721 -14.62535,-4.08231 -39.35559,26.71056 -24.73025,30.79287 -79.64925,87.83231 -105.84956,135.64484 -26.20032,47.81253 -23.68105,86.39441 -1.84342,130.00808 21.83763,43.61367 62.99024,92.2554 122.89836,124.1359 59.90811,31.88049 138.56429,46.99677 224.19393,52.93958 85.62963,5.94281 178.22264,2.71169 215.03218,-39.26665 C 771.88967,499.23502 752.9116,418.51169 720.71009,366.80627 688.50857,315.10084 643.0858,292.41688 592.6563,263.32992 542.2268,234.24296 486.79676,198.7564 436.26157,170.1119 385.72639,141.4674 340.09138,119.66824 320.00423,111.04104 Z"
     id="path892"
     inkscape:path-effect="#path-effect894"
     inkscape:original-d="m 294.45419,97.868033 c 5.46281,4.545897 10.92461,9.090797 16.38542,13.634697 -54.9202,57.04272 -109.8392,114.08216 -164.7603,171.12175 2.52038,38.58443 5.03965,77.16631 7.55798,115.74797 41.15609,48.64566 82.3087,97.2874 123.46279,145.93106 78.6619,15.11818 157.31808,30.23446 235.97797,45.35064 92.59957,-3.23031 185.19258,-6.46143 277.79016,-9.69374 C 771.89039,499.23485 752.91233,418.51152 733.93289,337.78558 688.50837,315.10124 643.0856,292.41727 597.65908,269.73094 542.22664,234.24321 486.79659,198.75666 431.36212,163.26691 385.72619,141.46783 340.09118,119.66866 294.45419,97.868033 Z"
     sodipodi:nodetypes="ccccccccccc"
     sodipodi:insensitive="true"
     inkscape:label="sos" />
  <path
     style="display:inline;opacity:1;fill:#ff8080;fill-opacity:0.50196081;stroke:#800000;stroke-width:5;stroke-linecap:butt;stroke-linejoin:miter;stroke-miterlimit:4;stroke-dasharray:none;stroke-opacity:1"
     d="M 443.76471,553.55934 C 379.26411,507.78351 311.31844,410.63981 295.01582,335.33797 278.7132,260.03614 314.05336,206.57932 366.15481,162.99823 c 52.10146,-43.58108 120.96012,-77.283449 188.61228,-50.21981 67.65216,27.06365 134.0932,114.88898 172.46664,202.40129 38.37343,87.51231 48.67811,174.70429 27.85704,220.14809 -20.82108,45.44379 -72.76727,49.13494 -129.26921,53.7759 -56.50195,4.64097 -117.55624,10.23148 -182.05685,-35.54436 z"
     id="path896"
     inkscape:path-effect="#path-effect898"
     inkscape:original-d="m 447.20885,604.92589 c -67.94457,-97.1425 -135.89024,-194.2862 -203.837,-291.43111 35.34267,-53.45777 70.68283,-106.91459 106.0226,-160.37371 68.86251,-33.7025 137.72117,-67.404879 206.58012,-101.109139 66.44479,87.830049 132.88583,175.655379 199.32711,263.481259 10.30635,87.19873 20.61103,174.39071 30.91535,261.58718 -51.94726,3.69229 -103.89345,7.38343 -155.84167,11.07365 -61.05563,5.59195 -122.10992,11.18246 -183.16651,16.77187 z"
     inkscape:label="convex_out"
     sodipodi:nodetypes="cccccccc" />
  <path
     sodipodi:nodetypes="cccccccc"
     inkscape:label="convex_in"
     inkscape:original-d="M 447.20885,604.92589 C 379.26427,507.78339 311.3186,410.63969 243.37184,313.49478 c 35.34267,-53.45777 70.68283,-106.91459 106.0226,-160.37371 35.2401,15.71131 70.47702,31.42064 105.71519,47.12998 82.13967,38.41589 164.27284,76.82821 246.41059,115.24214 17.61161,78.15686 35.22105,156.30756 52.83061,234.46219 -40.37796,7.78263 -80.75454,15.5638 -121.13444,23.34442 -62.00268,10.54323 -124.00396,21.08505 -186.00754,31.62609 z"
     inkscape:path-effect="#path-effect1126"
     id="path896-6"
     d="M 444.23817,551.08361 C 379.2641,507.78351 311.31843,410.63981 295.01581,335.33797 c -16.30262,-75.30183 19.03754,-128.75865 54.32824,-147.63235 35.2907,-18.8737 70.52762,-3.16437 129.21653,23.89826 58.68892,27.06262 140.82209,65.47494 190.6963,123.76064 49.87421,58.2857 67.48366,136.4364 56.09971,179.40437 -11.38394,42.96797 -51.76052,50.74914 -102.9518,59.91107 -51.19127,9.16193 -113.19255,19.70375 -178.16662,-23.59635 z"
     style="display:inline;opacity:1;fill:#ff8080;fill-opacity:0.50196081;stroke:#800000;stroke-width:5;stroke-linecap:butt;stroke-linejoin:miter;stroke-miterlimit:4;stroke-dasharray:none;stroke-opacity:1" />
</svg>
